<svg id="Layer_1" data-name="Layer 1" xmlns="http://www.w3.org/2000/svg" viewBox="0 0 146.98 247.58">
  <title>alcohol</title>
  <g id="_50znIs.tif" data-name="50znIs.tif">
    <g>
      <path d="M52.11,47.24V39.41c0.36-3.09,1.1-6.2,1-9.27-0.14-3.49.34-4.91,3.62-6.21A3.17,3.17,0,0,0,58,23.31a20.24,20.24,0,0,1,11.26-7.18c4.87-1.33,8.85-5.39,14.38-5.12a2.33,2.33,0,0,0,1.13-.37c5.77-3.19,12.4-3.42,18.54-5.32,3.09-1,6.22-2.17,9.4-2.42,5.45-.42,11-0.09,16.43-0.22,3.23-.07,6.46-0.41,9.69-0.63h1.2a8.88,8.88,0,0,0,1.82.76c6.93,1.23,14,2.08,20.79,3.71s13.72,2.93,19.71,7c2.83,1.93,6.43,2.8,9.08,4.92,4.44,3.55,6,8.72,6.14,14.32q0.39,13.36.86,26.71c0.31,9.05-1.63,17.81-3.44,26.58-2,9.84-7.26,18.26-12.07,26.84-3.93,7-8.81,13.31-15.86,17.55-1.28.77-3,1.05-3.93,2.1-3.49,4.06-8.59,4.36-13.12,5.5-5,1.25-10.27,1.21-15.11,1.7,0,6.48,0,12.15,0,17.82,0,7.22.12,14.43,0.2,21.65,0.05,5.26.06,10.52,0.21,15.78,0.12,4,.35,7.92.75,11.86a2.7,2.7,0,0,0,1.82,1.85c4.14,0.31,7.88,1.33,10.74,4.59a4.16,4.16,0,0,0,1.61,1.15c5.69,2.07,7.92,7.25,9.83,12.11,1.67,4.26,1.73,9.15,2.65,13.72a4.94,4.94,0,0,1-2.64,5.79c-2.39,1.32-4.92,2.37-7.39,3.54h-1.2a5.15,5.15,0,0,0-1.69-.77c-3.48-.16-7-0.23-10.44-0.31-2.49-.06-5-0.18-7.48-0.12-3.67.09-7.34,0.37-11,.47-2.85.08-5.74-.29-8.55,0.07-5.83.74-10.94-2.87-11-8,0-.81-0.44-1.61-0.48-2.43-0.12-2.07-1-4.71,0-6.11,3-4.47,4.28-10.15,9.11-13.39,3.15-2.11,6.15-4.47,9.35-6.5a35.26,35.26,0,0,1,5.36-2.29c1.65-23.29,0-46.58-2.19-69.68-2.74-.42-5.19-0.76-7.63-1.19-4.95-.87-10.28-0.91-14.74-2.89-8.22-3.66-16.9-6.92-22.36-15-3.83-5.65-8.12-11-12.2-16.47a15.52,15.52,0,0,1-2.34-3.37C62,98.54,61,95.34,60.11,92.12c-1.56-5.39-3.37-10.75-4.39-16.24S54.63,64.78,54,59.24C53.5,55.23,52.74,51.24,52.11,47.24Zm16.29-17a8.71,8.71,0,0,1,1.47,1c5.71,6,13.09,9.43,20.65,12.18a115.79,115.79,0,0,0,18.35,4.73A60.54,60.54,0,0,0,124,49.39c8.23-.59,16.4-2.09,24.59-3.22a9.26,9.26,0,0,0,1.73-.41c5.71-2,11.54-3.63,17.08-6s11.51-5,13.07-12.35c-2.69-1.8-5.54-3.56-8.22-5.54a27,27,0,0,0-12.78-5.06c-1.64-.22-3.23-0.75-4.86-1.06-3.91-.76-7.8-1.85-11.75-2.11-5.79-.38-11.65.15-17.44-0.27A72.34,72.34,0,0,0,103,15.74c-7,1.7-13.78,4.13-20.67,6.23C77.18,23.55,72.15,25.4,68.4,30.24Z" transform="translate(-52.11 -2.06)"/>
      <path d="M52.11,47.24c0.63,4,1.39,8,1.86,12,0.66,5.54.73,11.17,1.74,16.63s2.83,10.85,4.39,16.24c0.93,3.22,1.94,6.42,3.14,9.54A15.52,15.52,0,0,0,65.58,105c4.08,5.48,8.37,10.82,12.2,16.47,5.46,8.07,14.14,11.33,22.36,15,4.46,2,9.79,2,14.74,2.89,2.43,0.43,4.89.76,7.63,1.19,2.24,23.1,3.84,46.39,2.19,69.68a35.26,35.26,0,0,0-5.36,2.29c-3.21,2-6.2,4.39-9.35,6.5-4.83,3.24-6.1,8.92-9.11,13.39-0.94,1.4-.08,4,0,6.11,0,0.82.48,1.62,0.48,2.43,0,5.15,5.13,8.76,11,8,2.81-.36,5.7,0,8.55-0.07,3.67-.1,7.34-0.38,11-0.47,2.49-.06,5,0.06,7.48.12,3.48,0.08,7,.15,10.44.31a5.15,5.15,0,0,1,1.69.77H52.11V47.24Z" transform="translate(-52.11 -2.06)" fill="#fff"/>
      <path d="M152.71,249.64c2.47-1.17,5-2.22,7.39-3.54a4.94,4.94,0,0,0,2.64-5.79c-0.92-4.58-1-9.46-2.65-13.72-1.91-4.86-4.14-10-9.83-12.11a4.16,4.16,0,0,1-1.61-1.15c-2.86-3.26-6.6-4.28-10.74-4.59a2.7,2.7,0,0,1-1.82-1.85c-0.4-3.94-.63-7.9-0.75-11.86-0.15-5.26-.16-10.52-0.21-15.78-0.07-7.21-.16-14.43-0.2-21.65,0-5.67,0-11.35,0-17.82,4.83-.49,10.13-0.45,15.11-1.7,4.53-1.14,9.63-1.44,13.12-5.5,0.9-1.05,2.65-1.33,3.93-2.1,7-4.25,11.93-10.55,15.86-17.55,4.81-8.57,10-17,12.07-26.84,1.81-8.77,3.75-17.53,3.44-26.58s-0.6-17.8-.86-26.71c-0.16-5.6-1.7-10.77-6.14-14.32-2.64-2.11-6.25-3-9.08-4.92-6-4.09-12.93-5.4-19.71-7s-13.85-2.48-20.79-3.71a8.88,8.88,0,0,1-1.82-.76h59V249.64H152.71Z" transform="translate(-52.11 -2.06)" fill="#fff"/>
      <path d="M138.85,2.06c-3.23.22-6.46,0.55-9.69,0.63-5.48.12-11-.2-16.43,0.22-3.18.24-6.31,1.46-9.4,2.42-6.14,1.9-12.77,2.13-18.54,5.32a2.33,2.33,0,0,1-1.13.37c-5.53-.28-9.5,3.79-14.38,5.12A20.24,20.24,0,0,0,58,23.31a3.17,3.17,0,0,1-1.32.62c-3.28,1.31-3.76,2.72-3.62,6.21,0.12,3.07-.62,6.18-1,9.27V2.06h86.74Z" transform="translate(-52.11 -2.06)" fill="#fff"/>
      <path d="M68.4,30.24c3.75-4.84,8.77-6.69,14-8.27C89.24,19.87,96,17.44,103,15.74a72.34,72.34,0,0,1,22.43-2.36c5.79,0.42,11.65-.12,17.44.27,3.94,0.26,7.84,1.35,11.75,2.11,1.63,0.32,3.22.85,4.86,1.06a27,27,0,0,1,12.78,5.06c2.68,2,5.53,3.73,8.22,5.54-1.56,7.35-7.41,9.93-13.07,12.35s-11.37,4-17.08,6a9.26,9.26,0,0,1-1.73.41c-8.19,1.13-16.36,2.63-24.59,3.22a60.54,60.54,0,0,1-15.17-1.23,115.79,115.79,0,0,1-18.35-4.73C83,40.68,75.59,37.29,69.87,31.25A8.71,8.71,0,0,0,68.4,30.24Z" transform="translate(-52.11 -2.06)" fill="#fff"/>
    </g>
  </g>
</svg>
