<svg id="Layer_1" data-name="Layer 1" xmlns="http://www.w3.org/2000/svg" viewBox="0 0 163.36 250.29">
  <title>dairy</title>
  <g id="FC4rdE.tif">
    <g>
      <path d="M44.07,106.91v-4.5a2,2,0,0,0,.67-0.71c0.92-7.24,3.39-13.71,9-18.69a2.35,2.35,0,0,0,.57-1.57c0.09-5-.1-10,0.22-14.92s0.57-10.1,1.85-14.89c1.37-5.09,3.93-9.86,6-14.77a8.61,8.61,0,0,1,.7-2.1c2.35-2.92,4.8-5.75,7.21-8.62A9,9,0,0,0,71.2,25a20.85,20.85,0,0,1,7.68-7.75c0.93-.53,1.7-1.31,2.59-1.91,2.58-1.75,5-3.81,7.82-5.12,3.24-1.52,6.8-2.36,10.23-3.49,4.8-1.59,9.51-3.53,14.41-4.66,4.15-1,8.51-.92,12.77-1.42A3.58,3.58,0,0,0,128-.5h1a8.53,8.53,0,0,0,2,1.16c1.75,0.47,3.57.72,5.33,1.14C142,3.17,147.77,4.5,153.45,6a54.58,54.58,0,0,1,6.16,2.44c0.44,0.53,1.34.17,1.79,0.47,2.86,1.9,5.67,3.89,8.38,6,1.22,1,2,2.54,3.28,3.34,4.33,2.71,6.65,7.14,9.28,11.13,2.16,3.28,3.17,7.36,4.41,11.18a101.18,101.18,0,0,1,3.88,13.86c1.19,6.9,2.38,13.9.62,20.93-0.46,1.82.08,3,2.06,3.48,6.82,1.71,10.74,6.15,12,13,0.35,1.92,1.15,3.87,1,5.74a94.22,94.22,0,0,1-1.9,11.13c-0.85,4-2.47,7.68-5.91,10a111.18,111.18,0,0,1-10.61,6.08c-1.95,1-4.09,2.41-6.13,2.39-3.94,0-5.71,2.06-6.92,5.18q-3.33,8.64-6.52,17.33c-1.67,4.54-3.21,9.13-4.88,13.67-0.6,1.62-1.5,3.13-2.11,4.75q-3,7.88-5.81,15.81c-1.09,3.06-2,6.17-3,9.25a5.44,5.44,0,0,1-.75,1.74,25.52,25.52,0,0,0-5.36,12.33,10.69,10.69,0,0,1-.93,2.71c-1.85,4-3.86,7.92-5.58,12-1,2.36-1,5.26-2.42,7.32-3.26,4.91-3.11,10.75-5.09,16-0.53,1.39-1.4,3.14-2.6,3.71-3.88,1.86-10.41-1.49-11.09-5.73a40.79,40.79,0,0,0-3.53-11.79c-1-2-1.88-4.06-2.72-6.13-2.12-5.2-4.1-10.46-6.29-15.64-1.9-4.49-4.12-8.85-6-13.35-3.69-8.78-7.21-17.63-10.86-26.42q-4.71-11.36-9.57-22.65c-2.76-6.44-5.54-12.87-8.51-19.21a4.22,4.22,0,0,0-2.94-1.66c-3.92-.54-8-0.25-11.54-2.49-2.25-1.44-5-2.71-6.36-4.81C47.89,115.25,45.09,111.5,44.07,106.91Zm60.82,74.76c1.23-2,2-3.43,3-4.7,4.1-5.15,4.73-10.7,2.1-16.66-0.79-1.8-1.71-3.55-2.64-5.29a1.64,1.64,0,0,0-1.05-.89,2.07,2.07,0,0,0-1.26,1c-1.52,2.67-3,5.36-4.41,8.1-1.55,3-2,6.07-.19,9.26,1.17,2.08,2,4.36,3,6.54C103.78,179.76,104.23,180.49,104.88,181.67Zm10.46,24.61c1.79-4.21,3.2-8.12,5.1-11.78,1.25-2.42.9-4.57,0.12-6.85s-1.71-4.77-2.62-7.14a9.59,9.59,0,0,0-1.11-1.6c-2.71,4.3-5.26,8.29-7.72,12.33a2.24,2.24,0,0,0,.22,1.61q2.27,5.48,4.64,10.93C114.35,204.65,114.87,205.44,115.34,206.28Zm2.29-48.46c1.73-2.44,2.95-4.28,4.29-6,2-2.56,3.92-5.08,2.21-8.58-1.52-3.11-3-6.23-4.8-9.89-1.88,2.86-3.11,5.1-4.69,7-2.3,2.84-3.1,5.53-1,8.93C115.21,151.74,116.15,154.57,117.63,157.81Zm12.37-1c-2.49,3.56-4.67,6.51-6.63,9.59a4.4,4.4,0,0,0-.72,3.27c1.39,3.82,3.09,7.51,5,12,1.47-2.06,2.73-3.37,3.45-4.93,1.59-3.48,4.17-6.8,2.45-11C132.37,162.76,131.24,159.87,130,156.77Zm-36.65-1.36,1.06,0.22c1.34-2,2.65-4,4-5.94,2.39-3.44,4.83-6.84,1.37-11-0.4-.48-0.39-1.29-0.74-1.83-0.74-1.13-1.59-2.18-2.64-3.58-2.58,3.77-4.87,7.08-7.1,10.43a1.78,1.78,0,0,0-.11,1.41C90.55,148.54,92,152,93.35,155.41Zm33.86,49a6.42,6.42,0,0,0-1.62,1.55q-2.92,5.68-5.6,11.47a2.72,2.72,0,0,0,.31,1.82c1.15,2.74,2.32,5.47,3.6,8.16a10.24,10.24,0,0,0,1.65,2,12.86,12.86,0,0,0,1.55-2.32c1.18-3,2.1-6.06,3.39-9a6.93,6.93,0,0,0,.08-5.92C129.5,209.79,128.46,207.37,127.2,204.45Zm12.21-46.78,0.75,0.25c0.52-1.4,1.05-2.79,1.55-4.19a12.12,12.12,0,0,1,1-3c4.46-6.3,3.57-10.71-.47-16.84-1.88,3.2-3.79,6.23-5.46,9.38-0.9,1.7-2.14,3.46-1.21,5.61Q137.49,153.3,139.41,157.67ZM138,181.49c-1.65,3.32-3.1,6.15-4.49,9-1.57,3.23.1,8.88,3.32,11.24a2.42,2.42,0,0,0,.67-0.67c1.74-4.46,3.48-8.92,5.14-13.41a1.86,1.86,0,0,0-.39-1.52C141,184.6,139.56,183.15,138,181.49Zm13.78-27.43c-1.2,1.95-2.41,4-3.71,6-2.21,3.4-4,6.56-2.28,11.11,0.69,1.81,2.24,2.55,2.49,4.32,2-4.94,3.76-9.73,5.48-14.54a3.08,3.08,0,0,0,.25-1.88C153.35,157.24,152.47,155.5,151.81,154.06ZM137,123l-10.11-.84-1.63,3.57,5,11.22,0.82-.15Zm-29.88,11.72a82.81,82.81,0,0,0,5.35-7.27c1.78-3.07,1.27-4.1-2.33-4.89-1.74-.38-3.63-0.07-5.45-0.07l-0.45-.69c-0.52,1.1-1.72,2.45-1.43,3.26C103.91,128.29,105.51,131.32,107.09,134.74Zm-15.9-12-11.49,1.4,5.77,10.22C88,130.64,90.61,127.48,91.19,122.73Zm68.45,22.88c0.95-2.13,2-4.14,2.74-6.24a6.69,6.69,0,0,0,.56-3.6c-0.27-1.12-1.37-2-2.11-3a10.4,10.4,0,0,0-2,2.32,19.4,19.4,0,0,0-1.6,5.16C157,142.1,156.9,144.22,159.63,145.61Zm-9-15,1,0c0.61-2.21,1.25-4.42,1.68-6.66,0-.1-2-0.53-3.11-0.9-1.61-.55-2.19.58-1.91,1.62A51.79,51.79,0,0,0,150.62,130.6Z" transform="translate(-44.07 0.5)"/>
      <path d="M44.07,106.91c1,4.59,3.82,8.34,6.27,12.14,1.36,2.1,4.11,3.37,6.36,4.81,3.51,2.24,7.62,2,11.54,2.49A4.22,4.22,0,0,1,71.18,128c3,6.34,5.74,12.78,8.51,19.21q4.85,11.3,9.57,22.65c3.65,8.79,7.17,17.64,10.86,26.42,1.89,4.5,4.11,8.86,6,13.35,2.19,5.17,4.17,10.43,6.29,15.64,0.84,2.07,1.73,4.13,2.72,6.13a40.79,40.79,0,0,1,3.53,11.79c0.68,4.24,7.21,7.59,11.09,5.73,1.2-.57,2.06-2.32,2.6-3.71,2-5.21,1.83-11.05,5.09-16,1.37-2.06,1.41-5,2.42-7.32,1.72-4,3.73-8,5.58-12a10.69,10.69,0,0,0,.93-2.71,25.52,25.52,0,0,1,5.36-12.33,5.44,5.44,0,0,0,.75-1.74c1-3.08,1.94-6.2,3-9.25q2.82-7.93,5.81-15.81c0.61-1.62,1.52-3.13,2.11-4.75,1.67-4.54,3.21-9.13,4.88-13.67q3.19-8.69,6.52-17.33c1.2-3.12,3-5.22,6.92-5.18,2,0,4.18-1.36,6.13-2.39a111.18,111.18,0,0,0,10.61-6.08c3.44-2.33,5.05-6.05,5.91-10a94.22,94.22,0,0,0,1.9-11.13c0.17-1.87-.62-3.82-1-5.74-1.27-6.86-5.19-11.31-12-13-2-.5-2.52-1.65-2.06-3.48,1.75-7,.57-14-0.62-20.93a101.18,101.18,0,0,0-3.88-13.86c-1.24-3.82-2.25-7.91-4.41-11.18-2.63-4-5-8.42-9.28-11.13-1.29-.8-2.06-2.39-3.28-3.34-2.71-2.11-5.52-4.09-8.38-6-0.45-.3-1.35.07-1.79-0.47A54.58,54.58,0,0,0,153.45,6C147.77,4.5,142,3.17,136.31,1.8c-1.77-.42-3.58-0.67-5.33-1.14A8.53,8.53,0,0,1,129-.5h78.43q0,125.14,0,250.29H44.07Q44.07,178.35,44.07,106.91Z" transform="translate(-44.07 0.5)" fill="#fff"/>
      <path d="M128-.5A3.58,3.58,0,0,1,126.69.64c-4.26.5-8.62,0.47-12.77,1.42C109,3.19,104.3,5.13,99.51,6.72c-3.42,1.13-7,2-10.23,3.49-2.79,1.3-5.24,3.37-7.82,5.12-0.89.6-1.66,1.38-2.59,1.91A20.85,20.85,0,0,0,71.2,25a9,9,0,0,1-.94,1.14C67.85,29,65.4,31.84,63,34.75a8.61,8.61,0,0,0-.7,2.1c-2,4.92-4.58,9.68-6,14.77-1.29,4.79-1.54,9.9-1.85,14.89s-0.13,9.95-.22,14.92A2.35,2.35,0,0,1,53.75,83c-5.62,5-8.09,11.45-9,18.69a2,2,0,0,1-.67.71q0-51.39,0-102.91H128Z" transform="translate(-44.07 0.5)" fill="#fff"/>
      <path d="M104.88,181.67c-0.65-1.18-1.11-1.91-1.46-2.68-1-2.18-1.82-4.46-3-6.54-1.8-3.19-1.36-6.23.19-9.26,1.4-2.74,2.9-5.42,4.41-8.1a2.07,2.07,0,0,1,1.26-1,1.64,1.64,0,0,1,1.05.89c0.93,1.74,1.84,3.49,2.64,5.29,2.63,6,2,11.51-2.1,16.66C106.87,178.24,106.12,179.71,104.88,181.67Z" transform="translate(-44.07 0.5)" fill="#fff"/>
      <path d="M115.34,206.28c-0.47-.84-1-1.63-1.37-2.49q-2.37-5.45-4.64-10.93a2.24,2.24,0,0,1-.22-1.61c2.46-4,5-8,7.72-12.33a9.59,9.59,0,0,1,1.11,1.6c0.91,2.37,1.8,4.74,2.62,7.14s1.13,4.43-.12,6.85C118.54,198.16,117.13,202.07,115.34,206.28Z" transform="translate(-44.07 0.5)" fill="#fff"/>
      <path d="M117.63,157.81c-1.48-3.25-2.42-6.07-4-8.52-2.13-3.4-1.33-6.08,1-8.93,1.58-1.95,2.81-4.18,4.69-7,1.77,3.66,3.28,6.78,4.8,9.89,1.71,3.5-.23,6-2.21,8.58C120.58,153.53,119.36,155.37,117.63,157.81Z" transform="translate(-44.07 0.5)" fill="#fff"/>
      <path d="M130,156.77c1.24,3.11,2.37,6,3.54,8.86,1.72,4.24-.86,7.57-2.45,11-0.72,1.56-2,2.88-3.45,4.93-1.9-4.47-3.6-8.17-5-12a4.4,4.4,0,0,1,.72-3.27C125.33,163.28,127.51,160.33,130,156.77Z" transform="translate(-44.07 0.5)" fill="#fff"/>
      <path d="M93.35,155.41c-1.39-3.44-2.8-6.87-4.14-10.33a1.78,1.78,0,0,1,.11-1.41c2.23-3.35,4.52-6.65,7.1-10.43,1,1.4,1.9,2.45,2.64,3.58,0.35,0.54.34,1.35,0.74,1.83,3.45,4.19,1,7.59-1.37,11-1.37,2-2.68,4-4,5.94Z" transform="translate(-44.07 0.5)" fill="#fff"/>
      <path d="M127.2,204.45c1.26,2.91,2.3,5.34,3.35,7.76a6.93,6.93,0,0,1-.08,5.92c-1.29,2.92-2.21,6-3.39,9a12.86,12.86,0,0,1-1.55,2.32,10.24,10.24,0,0,1-1.65-2c-1.27-2.68-2.44-5.42-3.6-8.16a2.72,2.72,0,0,1-.31-1.82q2.69-5.79,5.6-11.47A6.42,6.42,0,0,1,127.2,204.45Z" transform="translate(-44.07 0.5)" fill="#fff"/>
      <path d="M139.41,157.67q-1.92-4.38-3.83-8.76c-0.93-2.15.3-3.91,1.21-5.61,1.67-3.15,3.58-6.18,5.46-9.38,4,6.13,4.94,10.54.47,16.84a12.12,12.12,0,0,0-1,3c-0.5,1.4-1,2.8-1.55,4.19Z" transform="translate(-44.07 0.5)" fill="#fff"/>
      <path d="M138,181.49c1.54,1.66,2.95,3.11,4.26,4.65a1.86,1.86,0,0,1,.39,1.52c-1.66,4.49-3.4,9-5.14,13.41a2.42,2.42,0,0,1-.67.67c-3.22-2.36-4.89-8-3.32-11.24C134.92,187.64,136.37,184.81,138,181.49Z" transform="translate(-44.07 0.5)" fill="#fff"/>
      <path d="M151.81,154.06c0.66,1.44,1.54,3.19,2.23,5a3.08,3.08,0,0,1-.25,1.88c-1.71,4.81-3.47,9.61-5.48,14.54-0.25-1.77-1.8-2.52-2.49-4.32-1.73-4.55.06-7.71,2.28-11.11C149.4,158.06,150.6,156,151.81,154.06Z" transform="translate(-44.07 0.5)" fill="#fff"/>
      <path d="M137,123l-6,13.81-0.82.15-5-11.22,1.63-3.57Z" transform="translate(-44.07 0.5)" fill="#fff"/>
      <path d="M107.09,134.74c-1.58-3.42-3.18-6.45-4.31-9.65-0.29-.82.91-2.16,1.43-3.26l0.45,0.69c1.82,0,3.72-.32,5.45.07,3.6,0.79,4.11,1.82,2.33,4.89A82.81,82.81,0,0,1,107.09,134.74Z" transform="translate(-44.07 0.5)" fill="#fff"/>
      <path d="M91.19,122.73c-0.57,4.75-3.23,7.92-5.72,11.63L79.7,124.13Z" transform="translate(-44.07 0.5)" fill="#fff"/>
      <path d="M159.63,145.61c-2.73-1.39-2.61-3.51-2.37-5.41a19.4,19.4,0,0,1,1.6-5.16,10.4,10.4,0,0,1,2-2.32c0.74,1,1.84,1.92,2.11,3a6.69,6.69,0,0,1-.56,3.6C161.59,141.47,160.58,143.48,159.63,145.61Z" transform="translate(-44.07 0.5)" fill="#fff"/>
      <path d="M150.62,130.6a51.79,51.79,0,0,1-2.32-6c-0.27-1,.31-2.17,1.91-1.62,1.07,0.36,3.13.8,3.11,0.9-0.42,2.25-1.07,4.45-1.68,6.66Z" transform="translate(-44.07 0.5)" fill="#fff"/>
    </g>
  </g>
</svg>
