<svg xmlns = "http://www.w3.org/2000/svg">

<symbol id="grains" viewBox="0 0 181.57 224.58">
  <title>grains</title>
  <path d="M183.9,234.2H13.3V71.6c-41.6-82.7,216.1-79.9,170.6,0V234.2h0Z" transform="translate(-8.24 -10.12)" stroke="#fff" stroke-miterlimit="10"/>
</symbol>


<symbol id="fruit" viewBox="0 0 206.18 250">
  <title>fruit</title>
  <g id="oSymwm.tif">
    <g>
      <path d="M88.25,250.72H78.91A5.75,5.75,0,0,0,77.37,249c-2.21-.94-4.75-1.3-6.71-2.58a163.15,163.15,0,0,1-15.56-11.09c-6.34-5.29-12-11.36-15.8-18.81a104.16,104.16,0,0,1-5-10.39c-2.71-7.07-5.27-14.22-7.55-21.44-0.65-2,0-4.47-.16-6.71-0.68-12.15-4.08-24-2.21-36.48,1.79-11.92,3-23.85,9.22-34.53,3.86-6.68,7.56-13.48,11.95-19.8,2.22-3.2,6.39-5,8.64-8.21,3.27-4.63,8.29-6.45,12.74-8.9,3.61-2,8.2-2.57,12.43-3,7.5-.79,15-3.29,22.64-0.88a15.16,15.16,0,0,0,4.22.63,21.12,21.12,0,0,1,14.28,6c0.88,0.81,1.77,1.6,3.3,3V57.1c-7.19-1.11-14.2-1.57-20.83-3.4C96.76,52,90.12,49.37,87.31,43.05,85.21,38.35,81.5,34,83,27.74c0.85-3.56-.69-7.66-0.91-11.53A7.65,7.65,0,0,1,87.85,9c3-.57,5.08,1.15,7.14,3.34,1.61,1.7,4,3.37,6.25,3.57,3.35,0.3,6.86-.47,10.23-1.15a32.2,32.2,0,0,1,21.47,2.67c4.77,2.4,6.07,2,9.18-2.27,4.33-5.92,9.41-10.78,17.13-11.94,2.32-.35,4.6-1.75,6.84-1.63a113.35,113.35,0,0,1,14.22,1.92,14.34,14.34,0,0,1,11.36,17c-0.69,3.07-3.42,4.94-5.74,3.56a44.41,44.41,0,0,1-5.64-4.62c-2.14-1.82-4-4.77-6.45-5.27-8.86-1.83-17,.66-22.84,7.59-5.2,6.11-9.9,12.77-11.84,20.82-0.43,1.77.14,3.76-.21,5.56-1.15,5.78-2.68,11.48-3.74,17.28-0.57,3.12-.46,6.37-0.68,10a7.87,7.87,0,0,0,1.65-.9c7.6-9.25,18-12.28,29.3-12.38A77.6,77.6,0,0,1,180.75,64a28.47,28.47,0,0,1,9.61,3.36,110.61,110.61,0,0,1,13.82,10.38c6.08,5.3,10.53,12,14.35,19,1.28,2.36,3,4.55,3.9,7,1.79,4.86,3.76,9.79,4.53,14.85a139,139,0,0,1,1.18,19.89c0,6.94-.26,13.9-0.78,20.83-0.38,5-1.36,10-2,15-0.53,3.86-.82,7.77-1.55,11.6-1,5-2.24,9.91-3.36,14.87-0.88,3.89-1.32,7.93-2.69,11.63s-3.63,7.24-5.58,10.79c-1.46,2.67-3.28,5.16-4.55,7.91-2.92,6.33-8.22,10.25-13.89,13.59a27.73,27.73,0,0,1-13.39,4.05c-2.21.06-4.38,1.21-6.57,1.87h-2.87c-1.39-.29-2.78-0.61-4.17-0.86-2.54-.45-5.25-0.44-7.61-1.34-5.48-2.1-10.79-4.62-14.75-9.22-3.21-3.73-6.43-7.45-9.62-11.2-1.07-1.26-2-2.59-3.07-3.91a43.62,43.62,0,0,1-3.61,5.09c-3.67,3.81-7.85,7.18-11.18,11.25-3.88,4.75-8.81,6.63-14.55,7.1-1.88.15-3.94-.7-5.69-0.24A66.07,66.07,0,0,0,88.25,250.72Z" transform="translate(-22.87 -0.72)"/>
      <path d="M173.73,250.72c2.19-.66,4.36-1.81,6.57-1.87a27.73,27.73,0,0,0,13.39-4.05c5.67-3.34,11-7.26,13.89-13.59,1.27-2.75,3.08-5.24,4.55-7.91,2-3.55,4.19-7,5.58-10.79s1.81-7.74,2.69-11.63c1.12-5,2.41-9.88,3.36-14.87,0.73-3.82,1-7.73,1.55-11.6,0.68-5,1.67-10,2-15,0.52-6.92.82-13.88,0.78-20.83A139,139,0,0,0,227,118.66c-0.77-5.07-2.75-10-4.53-14.85-0.91-2.49-2.62-4.68-3.9-7-3.83-7.08-8.27-13.74-14.35-19a110.61,110.61,0,0,0-13.82-10.38A28.47,28.47,0,0,0,180.75,64a77.6,77.6,0,0,0-15.29-1.89c-11.34.1-21.7,3.13-29.3,12.38a7.87,7.87,0,0,1-1.65.9c0.22-3.63.12-6.87,0.68-10,1.05-5.79,2.59-11.5,3.74-17.28,0.36-1.8-.21-3.79.21-5.56,1.95-8,6.65-14.7,11.84-20.82,5.89-6.93,14-9.42,22.84-7.59,2.41,0.5,4.3,3.46,6.45,5.27A44.41,44.41,0,0,0,185.92,24c2.31,1.38,5-.49,5.74-3.56a14.34,14.34,0,0,0-11.36-17,113.35,113.35,0,0,0-14.22-1.92c-2.24-.12-4.52,1.28-6.84,1.63-7.72,1.15-12.8,6-17.13,11.94-3.1,4.24-4.41,4.67-9.18,2.27a32.2,32.2,0,0,0-21.47-2.67c-3.37.68-6.88,1.45-10.23,1.15C99,15.68,96.59,14,95,12.31,92.92,10.12,90.82,8.4,87.85,9a7.65,7.65,0,0,0-5.77,7.24c0.22,3.87,1.77,8,.91,11.53C81.5,34,85.21,38.35,87.31,43.05,90.12,49.37,96.76,52,103,53.69c6.63,1.84,13.64,2.29,20.83,3.4v18.7c-1.53-1.38-2.43-2.17-3.3-3a21.12,21.12,0,0,0-14.28-6,15.16,15.16,0,0,1-4.22-.63c-7.66-2.41-15.13.09-22.64,0.88-4.23.44-8.82,1-12.43,3-4.45,2.46-9.47,4.28-12.74,8.9-2.25,3.18-6.42,5-8.64,8.21-4.39,6.32-8.09,13.12-11.95,19.8-6.17,10.68-7.42,22.61-9.22,34.53C22.51,154,25.91,165.85,26.59,178c0.13,2.24-.48,4.66.16,6.71,2.28,7.22,4.84,14.36,7.55,21.44a104.16,104.16,0,0,0,5,10.39c3.85,7.45,9.46,13.52,15.8,18.81a163.15,163.15,0,0,0,15.56,11.09c2,1.28,4.51,1.63,6.71,2.58a5.75,5.75,0,0,1,1.54,1.71h-56V0.72H229.05v250H173.73Z" transform="translate(-22.87 -0.72)" fill="#fff"/>
      <path d="M88.25,250.72a66.07,66.07,0,0,1,8.36-3.33c1.76-.46,3.81.39,5.69,0.24,5.73-.47,10.67-2.34,14.55-7.1,3.33-4.08,7.51-7.44,11.18-11.25a43.62,43.62,0,0,0,3.61-5.09c1,1.32,2,2.66,3.07,3.91,3.19,3.75,6.41,7.47,9.62,11.2,4,4.6,9.27,7.13,14.75,9.22,2.36,0.91,5.07.9,7.61,1.34,1.4,0.24,2.78.57,4.17,0.86H88.25Z" transform="translate(-22.87 -0.72)" fill="#fff"/>
    </g>
  </g>
</symbol>

<symbol id="protein" viewBox="0 0 232.71 245.09">
  <title>protein</title>
  <path d="M210.75,52.94c-49-18.43-52.4-41.4-87.72-41.4-31.38,0-73.5-31.42-80.34,33.28S9.4,93.79,9.4,125.16c0,32.13,28.22,26.21,34.77,81.81s59.57,44.25,78.86,31.82,31.63-30.55,80.34-33.28,33.28-49,33.28-80.34C236.65,97.73,259.79,71.37,210.75,52.94Zm-85,118.17a44.65,44.65,0,1,1,44.65-44.65A44.65,44.65,0,0,1,125.75,171.11Z" transform="translate(-9.4 -3.91)"/>
</symbol>

<symbol id="dairy" viewBox="0 0 163.36 250.29">
  <title>dairy</title>
  <g id="FC4rdE.tif">
    <g>
      <path d="M44.07,106.91v-4.5a2,2,0,0,0,.67-0.71c0.92-7.24,3.39-13.71,9-18.69a2.35,2.35,0,0,0,.57-1.57c0.09-5-.1-10,0.22-14.92s0.57-10.1,1.85-14.89c1.37-5.09,3.93-9.86,6-14.77a8.61,8.61,0,0,1,.7-2.1c2.35-2.92,4.8-5.75,7.21-8.62A9,9,0,0,0,71.2,25a20.85,20.85,0,0,1,7.68-7.75c0.93-.53,1.7-1.31,2.59-1.91,2.58-1.75,5-3.81,7.82-5.12,3.24-1.52,6.8-2.36,10.23-3.49,4.8-1.59,9.51-3.53,14.41-4.66,4.15-1,8.51-.92,12.77-1.42A3.58,3.58,0,0,0,128-.5h1a8.53,8.53,0,0,0,2,1.16c1.75,0.47,3.57.72,5.33,1.14C142,3.17,147.77,4.5,153.45,6a54.58,54.58,0,0,1,6.16,2.44c0.44,0.53,1.34.17,1.79,0.47,2.86,1.9,5.67,3.89,8.38,6,1.22,1,2,2.54,3.28,3.34,4.33,2.71,6.65,7.14,9.28,11.13,2.16,3.28,3.17,7.36,4.41,11.18a101.18,101.18,0,0,1,3.88,13.86c1.19,6.9,2.38,13.9.62,20.93-0.46,1.82.08,3,2.06,3.48,6.82,1.71,10.74,6.15,12,13,0.35,1.92,1.15,3.87,1,5.74a94.22,94.22,0,0,1-1.9,11.13c-0.85,4-2.47,7.68-5.91,10a111.18,111.18,0,0,1-10.61,6.08c-1.95,1-4.09,2.41-6.13,2.39-3.94,0-5.71,2.06-6.92,5.18q-3.33,8.64-6.52,17.33c-1.67,4.54-3.21,9.13-4.88,13.67-0.6,1.62-1.5,3.13-2.11,4.75q-3,7.88-5.81,15.81c-1.09,3.06-2,6.17-3,9.25a5.44,5.44,0,0,1-.75,1.74,25.52,25.52,0,0,0-5.36,12.33,10.69,10.69,0,0,1-.93,2.71c-1.85,4-3.86,7.92-5.58,12-1,2.36-1,5.26-2.42,7.32-3.26,4.91-3.11,10.75-5.09,16-0.53,1.39-1.4,3.14-2.6,3.71-3.88,1.86-10.41-1.49-11.09-5.73a40.79,40.79,0,0,0-3.53-11.79c-1-2-1.88-4.06-2.72-6.13-2.12-5.2-4.1-10.46-6.29-15.64-1.9-4.49-4.12-8.85-6-13.35-3.69-8.78-7.21-17.63-10.86-26.42q-4.71-11.36-9.57-22.65c-2.76-6.44-5.54-12.87-8.51-19.21a4.22,4.22,0,0,0-2.94-1.66c-3.92-.54-8-0.25-11.54-2.49-2.25-1.44-5-2.71-6.36-4.81C47.89,115.25,45.09,111.5,44.07,106.91Zm60.82,74.76c1.23-2,2-3.43,3-4.7,4.1-5.15,4.73-10.7,2.1-16.66-0.79-1.8-1.71-3.55-2.64-5.29a1.64,1.64,0,0,0-1.05-.89,2.07,2.07,0,0,0-1.26,1c-1.52,2.67-3,5.36-4.41,8.1-1.55,3-2,6.07-.19,9.26,1.17,2.08,2,4.36,3,6.54C103.78,179.76,104.23,180.49,104.88,181.67Zm10.46,24.61c1.79-4.21,3.2-8.12,5.1-11.78,1.25-2.42.9-4.57,0.12-6.85s-1.71-4.77-2.62-7.14a9.59,9.59,0,0,0-1.11-1.6c-2.71,4.3-5.26,8.29-7.72,12.33a2.24,2.24,0,0,0,.22,1.61q2.27,5.48,4.64,10.93C114.35,204.65,114.87,205.44,115.34,206.28Zm2.29-48.46c1.73-2.44,2.95-4.28,4.29-6,2-2.56,3.92-5.08,2.21-8.58-1.52-3.11-3-6.23-4.8-9.89-1.88,2.86-3.11,5.1-4.69,7-2.3,2.84-3.1,5.53-1,8.93C115.21,151.74,116.15,154.57,117.63,157.81Zm12.37-1c-2.49,3.56-4.67,6.51-6.63,9.59a4.4,4.4,0,0,0-.72,3.27c1.39,3.82,3.09,7.51,5,12,1.47-2.06,2.73-3.37,3.45-4.93,1.59-3.48,4.17-6.8,2.45-11C132.37,162.76,131.24,159.87,130,156.77Zm-36.65-1.36,1.06,0.22c1.34-2,2.65-4,4-5.94,2.39-3.44,4.83-6.84,1.37-11-0.4-.48-0.39-1.29-0.74-1.83-0.74-1.13-1.59-2.18-2.64-3.58-2.58,3.77-4.87,7.08-7.1,10.43a1.78,1.78,0,0,0-.11,1.41C90.55,148.54,92,152,93.35,155.41Zm33.86,49a6.42,6.42,0,0,0-1.62,1.55q-2.92,5.68-5.6,11.47a2.72,2.72,0,0,0,.31,1.82c1.15,2.74,2.32,5.47,3.6,8.16a10.24,10.24,0,0,0,1.65,2,12.86,12.86,0,0,0,1.55-2.32c1.18-3,2.1-6.06,3.39-9a6.93,6.93,0,0,0,.08-5.92C129.5,209.79,128.46,207.37,127.2,204.45Zm12.21-46.78,0.75,0.25c0.52-1.4,1.05-2.79,1.55-4.19a12.12,12.12,0,0,1,1-3c4.46-6.3,3.57-10.71-.47-16.84-1.88,3.2-3.79,6.23-5.46,9.38-0.9,1.7-2.14,3.46-1.21,5.61Q137.49,153.3,139.41,157.67ZM138,181.49c-1.65,3.32-3.1,6.15-4.49,9-1.57,3.23.1,8.88,3.32,11.24a2.42,2.42,0,0,0,.67-0.67c1.74-4.46,3.48-8.92,5.14-13.41a1.86,1.86,0,0,0-.39-1.52C141,184.6,139.56,183.15,138,181.49Zm13.78-27.43c-1.2,1.95-2.41,4-3.71,6-2.21,3.4-4,6.56-2.28,11.11,0.69,1.81,2.24,2.55,2.49,4.32,2-4.94,3.76-9.73,5.48-14.54a3.08,3.08,0,0,0,.25-1.88C153.35,157.24,152.47,155.5,151.81,154.06ZM137,123l-10.11-.84-1.63,3.57,5,11.22,0.82-.15Zm-29.88,11.72a82.81,82.81,0,0,0,5.35-7.27c1.78-3.07,1.27-4.1-2.33-4.89-1.74-.38-3.63-0.07-5.45-0.07l-0.45-.69c-0.52,1.1-1.72,2.45-1.43,3.26C103.91,128.29,105.51,131.32,107.09,134.74Zm-15.9-12-11.49,1.4,5.77,10.22C88,130.64,90.61,127.48,91.19,122.73Zm68.45,22.88c0.95-2.13,2-4.14,2.74-6.24a6.69,6.69,0,0,0,.56-3.6c-0.27-1.12-1.37-2-2.11-3a10.4,10.4,0,0,0-2,2.32,19.4,19.4,0,0,0-1.6,5.16C157,142.1,156.9,144.22,159.63,145.61Zm-9-15,1,0c0.61-2.21,1.25-4.42,1.68-6.66,0-.1-2-0.53-3.11-0.9-1.61-.55-2.19.58-1.91,1.62A51.79,51.79,0,0,0,150.62,130.6Z" transform="translate(-44.07 0.5)"/>
      <path d="M44.07,106.91c1,4.59,3.82,8.34,6.27,12.14,1.36,2.1,4.11,3.37,6.36,4.81,3.51,2.24,7.62,2,11.54,2.49A4.22,4.22,0,0,1,71.18,128c3,6.34,5.74,12.78,8.51,19.21q4.85,11.3,9.57,22.65c3.65,8.79,7.17,17.64,10.86,26.42,1.89,4.5,4.11,8.86,6,13.35,2.19,5.17,4.17,10.43,6.29,15.64,0.84,2.07,1.73,4.13,2.72,6.13a40.79,40.79,0,0,1,3.53,11.79c0.68,4.24,7.21,7.59,11.09,5.73,1.2-.57,2.06-2.32,2.6-3.71,2-5.21,1.83-11.05,5.09-16,1.37-2.06,1.41-5,2.42-7.32,1.72-4,3.73-8,5.58-12a10.69,10.69,0,0,0,.93-2.71,25.52,25.52,0,0,1,5.36-12.33,5.44,5.44,0,0,0,.75-1.74c1-3.08,1.94-6.2,3-9.25q2.82-7.93,5.81-15.81c0.61-1.62,1.52-3.13,2.11-4.75,1.67-4.54,3.21-9.13,4.88-13.67q3.19-8.69,6.52-17.33c1.2-3.12,3-5.22,6.92-5.18,2,0,4.18-1.36,6.13-2.39a111.18,111.18,0,0,0,10.61-6.08c3.44-2.33,5.05-6.05,5.91-10a94.22,94.22,0,0,0,1.9-11.13c0.17-1.87-.62-3.82-1-5.74-1.27-6.86-5.19-11.31-12-13-2-.5-2.52-1.65-2.06-3.48,1.75-7,.57-14-0.62-20.93a101.18,101.18,0,0,0-3.88-13.86c-1.24-3.82-2.25-7.91-4.41-11.18-2.63-4-5-8.42-9.28-11.13-1.29-.8-2.06-2.39-3.28-3.34-2.71-2.11-5.52-4.09-8.38-6-0.45-.3-1.35.07-1.79-0.47A54.58,54.58,0,0,0,153.45,6C147.77,4.5,142,3.17,136.31,1.8c-1.77-.42-3.58-0.67-5.33-1.14A8.53,8.53,0,0,1,129-.5h78.43q0,125.14,0,250.29H44.07Q44.07,178.35,44.07,106.91Z" transform="translate(-44.07 0.5)" fill="#fff"/>
      <path d="M128-.5A3.58,3.58,0,0,1,126.69.64c-4.26.5-8.62,0.47-12.77,1.42C109,3.19,104.3,5.13,99.51,6.72c-3.42,1.13-7,2-10.23,3.49-2.79,1.3-5.24,3.37-7.82,5.12-0.89.6-1.66,1.38-2.59,1.91A20.85,20.85,0,0,0,71.2,25a9,9,0,0,1-.94,1.14C67.85,29,65.4,31.84,63,34.75a8.61,8.61,0,0,0-.7,2.1c-2,4.92-4.58,9.68-6,14.77-1.29,4.79-1.54,9.9-1.85,14.89s-0.13,9.95-.22,14.92A2.35,2.35,0,0,1,53.75,83c-5.62,5-8.09,11.45-9,18.69a2,2,0,0,1-.67.71q0-51.39,0-102.91H128Z" transform="translate(-44.07 0.5)" fill="#fff"/>
      <path d="M104.88,181.67c-0.65-1.18-1.11-1.91-1.46-2.68-1-2.18-1.82-4.46-3-6.54-1.8-3.19-1.36-6.23.19-9.26,1.4-2.74,2.9-5.42,4.41-8.1a2.07,2.07,0,0,1,1.26-1,1.64,1.64,0,0,1,1.05.89c0.93,1.74,1.84,3.49,2.64,5.29,2.63,6,2,11.51-2.1,16.66C106.87,178.24,106.12,179.71,104.88,181.67Z" transform="translate(-44.07 0.5)" fill="#fff"/>
      <path d="M115.34,206.28c-0.47-.84-1-1.63-1.37-2.49q-2.37-5.45-4.64-10.93a2.24,2.24,0,0,1-.22-1.61c2.46-4,5-8,7.72-12.33a9.59,9.59,0,0,1,1.11,1.6c0.91,2.37,1.8,4.74,2.62,7.14s1.13,4.43-.12,6.85C118.54,198.16,117.13,202.07,115.34,206.28Z" transform="translate(-44.07 0.5)" fill="#fff"/>
      <path d="M117.63,157.81c-1.48-3.25-2.42-6.07-4-8.52-2.13-3.4-1.33-6.08,1-8.93,1.58-1.95,2.81-4.18,4.69-7,1.77,3.66,3.28,6.78,4.8,9.89,1.71,3.5-.23,6-2.21,8.58C120.58,153.53,119.36,155.37,117.63,157.81Z" transform="translate(-44.07 0.5)" fill="#fff"/>
      <path d="M130,156.77c1.24,3.11,2.37,6,3.54,8.86,1.72,4.24-.86,7.57-2.45,11-0.72,1.56-2,2.88-3.45,4.93-1.9-4.47-3.6-8.17-5-12a4.4,4.4,0,0,1,.72-3.27C125.33,163.28,127.51,160.33,130,156.77Z" transform="translate(-44.07 0.5)" fill="#fff"/>
      <path d="M93.35,155.41c-1.39-3.44-2.8-6.87-4.14-10.33a1.78,1.78,0,0,1,.11-1.41c2.23-3.35,4.52-6.65,7.1-10.43,1,1.4,1.9,2.45,2.64,3.58,0.35,0.54.34,1.35,0.74,1.83,3.45,4.19,1,7.59-1.37,11-1.37,2-2.68,4-4,5.94Z" transform="translate(-44.07 0.5)" fill="#fff"/>
      <path d="M127.2,204.45c1.26,2.91,2.3,5.34,3.35,7.76a6.93,6.93,0,0,1-.08,5.92c-1.29,2.92-2.21,6-3.39,9a12.86,12.86,0,0,1-1.55,2.32,10.24,10.24,0,0,1-1.65-2c-1.27-2.68-2.44-5.42-3.6-8.16a2.72,2.72,0,0,1-.31-1.82q2.69-5.79,5.6-11.47A6.42,6.42,0,0,1,127.2,204.45Z" transform="translate(-44.07 0.5)" fill="#fff"/>
      <path d="M139.41,157.67q-1.92-4.38-3.83-8.76c-0.93-2.15.3-3.91,1.21-5.61,1.67-3.15,3.58-6.18,5.46-9.38,4,6.13,4.94,10.54.47,16.84a12.12,12.12,0,0,0-1,3c-0.5,1.4-1,2.8-1.55,4.19Z" transform="translate(-44.07 0.5)" fill="#fff"/>
      <path d="M138,181.49c1.54,1.66,2.95,3.11,4.26,4.65a1.86,1.86,0,0,1,.39,1.52c-1.66,4.49-3.4,9-5.14,13.41a2.42,2.42,0,0,1-.67.67c-3.22-2.36-4.89-8-3.32-11.24C134.92,187.64,136.37,184.81,138,181.49Z" transform="translate(-44.07 0.5)" fill="#fff"/>
      <path d="M151.81,154.06c0.66,1.44,1.54,3.19,2.23,5a3.08,3.08,0,0,1-.25,1.88c-1.71,4.81-3.47,9.61-5.48,14.54-0.25-1.77-1.8-2.52-2.49-4.32-1.73-4.55.06-7.71,2.28-11.11C149.4,158.06,150.6,156,151.81,154.06Z" transform="translate(-44.07 0.5)" fill="#fff"/>
      <path d="M137,123l-6,13.81-0.82.15-5-11.22,1.63-3.57Z" transform="translate(-44.07 0.5)" fill="#fff"/>
      <path d="M107.09,134.74c-1.58-3.42-3.18-6.45-4.31-9.65-0.29-.82.91-2.16,1.43-3.26l0.45,0.69c1.82,0,3.72-.32,5.45.07,3.6,0.79,4.11,1.82,2.33,4.89A82.81,82.81,0,0,1,107.09,134.74Z" transform="translate(-44.07 0.5)" fill="#fff"/>
      <path d="M91.19,122.73c-0.57,4.75-3.23,7.92-5.72,11.63L79.7,124.13Z" transform="translate(-44.07 0.5)" fill="#fff"/>
      <path d="M159.63,145.61c-2.73-1.39-2.61-3.51-2.37-5.41a19.4,19.4,0,0,1,1.6-5.16,10.4,10.4,0,0,1,2-2.32c0.74,1,1.84,1.92,2.11,3a6.69,6.69,0,0,1-.56,3.6C161.59,141.47,160.58,143.48,159.63,145.61Z" transform="translate(-44.07 0.5)" fill="#fff"/>
      <path d="M150.62,130.6a51.79,51.79,0,0,1-2.32-6c-0.27-1,.31-2.17,1.91-1.62,1.07,0.36,3.13.8,3.11,0.9-0.42,2.25-1.07,4.45-1.68,6.66Z" transform="translate(-44.07 0.5)" fill="#fff"/>
    </g>
  </g>
</symbol>


<symbol id="alcohol" viewBox="0 0 146.98 247.58">
  <title>alcohol</title>
  <g id="_50znIs.tif" data-name="50znIs.tif">
    <g>
      <path d="M52.11,47.24V39.41c0.36-3.09,1.1-6.2,1-9.27-0.14-3.49.34-4.91,3.62-6.21A3.17,3.17,0,0,0,58,23.31a20.24,20.24,0,0,1,11.26-7.18c4.87-1.33,8.85-5.39,14.38-5.12a2.33,2.33,0,0,0,1.13-.37c5.77-3.19,12.4-3.42,18.54-5.32,3.09-1,6.22-2.17,9.4-2.42,5.45-.42,11-0.09,16.43-0.22,3.23-.07,6.46-0.41,9.69-0.63h1.2a8.88,8.88,0,0,0,1.82.76c6.93,1.23,14,2.08,20.79,3.71s13.72,2.93,19.71,7c2.83,1.93,6.43,2.8,9.08,4.92,4.44,3.55,6,8.72,6.14,14.32q0.39,13.36.86,26.71c0.31,9.05-1.63,17.81-3.44,26.58-2,9.84-7.26,18.26-12.07,26.84-3.93,7-8.81,13.31-15.86,17.55-1.28.77-3,1.05-3.93,2.1-3.49,4.06-8.59,4.36-13.12,5.5-5,1.25-10.27,1.21-15.11,1.7,0,6.48,0,12.15,0,17.82,0,7.22.12,14.43,0.2,21.65,0.05,5.26.06,10.52,0.21,15.78,0.12,4,.35,7.92.75,11.86a2.7,2.7,0,0,0,1.82,1.85c4.14,0.31,7.88,1.33,10.74,4.59a4.16,4.16,0,0,0,1.61,1.15c5.69,2.07,7.92,7.25,9.83,12.11,1.67,4.26,1.73,9.15,2.65,13.72a4.94,4.94,0,0,1-2.64,5.79c-2.39,1.32-4.92,2.37-7.39,3.54h-1.2a5.15,5.15,0,0,0-1.69-.77c-3.48-.16-7-0.23-10.44-0.31-2.49-.06-5-0.18-7.48-0.12-3.67.09-7.34,0.37-11,.47-2.85.08-5.74-.29-8.55,0.07-5.83.74-10.94-2.87-11-8,0-.81-0.44-1.61-0.48-2.43-0.12-2.07-1-4.71,0-6.11,3-4.47,4.28-10.15,9.11-13.39,3.15-2.11,6.15-4.47,9.35-6.5a35.26,35.26,0,0,1,5.36-2.29c1.65-23.29,0-46.58-2.19-69.68-2.74-.42-5.19-0.76-7.63-1.19-4.95-.87-10.28-0.91-14.74-2.89-8.22-3.66-16.9-6.92-22.36-15-3.83-5.65-8.12-11-12.2-16.47a15.52,15.52,0,0,1-2.34-3.37C62,98.54,61,95.34,60.11,92.12c-1.56-5.39-3.37-10.75-4.39-16.24S54.63,64.78,54,59.24C53.5,55.23,52.74,51.24,52.11,47.24Zm16.29-17a8.71,8.71,0,0,1,1.47,1c5.71,6,13.09,9.43,20.65,12.18a115.79,115.79,0,0,0,18.35,4.73A60.54,60.54,0,0,0,124,49.39c8.23-.59,16.4-2.09,24.59-3.22a9.26,9.26,0,0,0,1.73-.41c5.71-2,11.54-3.63,17.08-6s11.51-5,13.07-12.35c-2.69-1.8-5.54-3.56-8.22-5.54a27,27,0,0,0-12.78-5.06c-1.64-.22-3.23-0.75-4.86-1.06-3.91-.76-7.8-1.85-11.75-2.11-5.79-.38-11.65.15-17.44-0.27A72.34,72.34,0,0,0,103,15.74c-7,1.7-13.78,4.13-20.67,6.23C77.18,23.55,72.15,25.4,68.4,30.24Z" transform="translate(-52.11 -2.06)"/>
      <path d="M52.11,47.24c0.63,4,1.39,8,1.86,12,0.66,5.54.73,11.17,1.74,16.63s2.83,10.85,4.39,16.24c0.93,3.22,1.94,6.42,3.14,9.54A15.52,15.52,0,0,0,65.58,105c4.08,5.48,8.37,10.82,12.2,16.47,5.46,8.07,14.14,11.33,22.36,15,4.46,2,9.79,2,14.74,2.89,2.43,0.43,4.89.76,7.63,1.19,2.24,23.1,3.84,46.39,2.19,69.68a35.26,35.26,0,0,0-5.36,2.29c-3.21,2-6.2,4.39-9.35,6.5-4.83,3.24-6.1,8.92-9.11,13.39-0.94,1.4-.08,4,0,6.11,0,0.82.48,1.62,0.48,2.43,0,5.15,5.13,8.76,11,8,2.81-.36,5.7,0,8.55-0.07,3.67-.1,7.34-0.38,11-0.47,2.49-.06,5,0.06,7.48.12,3.48,0.08,7,.15,10.44.31a5.15,5.15,0,0,1,1.69.77H52.11V47.24Z" transform="translate(-52.11 -2.06)" fill="#fff"/>
      <path d="M152.71,249.64c2.47-1.17,5-2.22,7.39-3.54a4.94,4.94,0,0,0,2.64-5.79c-0.92-4.58-1-9.46-2.65-13.72-1.91-4.86-4.14-10-9.83-12.11a4.16,4.16,0,0,1-1.61-1.15c-2.86-3.26-6.6-4.28-10.74-4.59a2.7,2.7,0,0,1-1.82-1.85c-0.4-3.94-.63-7.9-0.75-11.86-0.15-5.26-.16-10.52-0.21-15.78-0.07-7.21-.16-14.43-0.2-21.65,0-5.67,0-11.35,0-17.82,4.83-.49,10.13-0.45,15.11-1.7,4.53-1.14,9.63-1.44,13.12-5.5,0.9-1.05,2.65-1.33,3.93-2.1,7-4.25,11.93-10.55,15.86-17.55,4.81-8.57,10-17,12.07-26.84,1.81-8.77,3.75-17.53,3.44-26.58s-0.6-17.8-.86-26.71c-0.16-5.6-1.7-10.77-6.14-14.32-2.64-2.11-6.25-3-9.08-4.92-6-4.09-12.93-5.4-19.71-7s-13.85-2.48-20.79-3.71a8.88,8.88,0,0,1-1.82-.76h59V249.64H152.71Z" transform="translate(-52.11 -2.06)" fill="#fff"/>
      <path d="M138.85,2.06c-3.23.22-6.46,0.55-9.69,0.63-5.48.12-11-.2-16.43,0.22-3.18.24-6.31,1.46-9.4,2.42-6.14,1.9-12.77,2.13-18.54,5.32a2.33,2.33,0,0,1-1.13.37c-5.53-.28-9.5,3.79-14.38,5.12A20.24,20.24,0,0,0,58,23.31a3.17,3.17,0,0,1-1.32.62c-3.28,1.31-3.76,2.72-3.62,6.21,0.12,3.07-.62,6.18-1,9.27V2.06h86.74Z" transform="translate(-52.11 -2.06)" fill="#fff"/>
      <path d="M68.4,30.24c3.75-4.84,8.77-6.69,14-8.27C89.24,19.87,96,17.44,103,15.74a72.34,72.34,0,0,1,22.43-2.36c5.79,0.42,11.65-.12,17.44.27,3.94,0.26,7.84,1.35,11.75,2.11,1.63,0.32,3.22.85,4.86,1.06a27,27,0,0,1,12.78,5.06c2.68,2,5.53,3.73,8.22,5.54-1.56,7.35-7.41,9.93-13.07,12.35s-11.37,4-17.08,6a9.26,9.26,0,0,1-1.73.41c-8.19,1.13-16.36,2.63-24.59,3.22a60.54,60.54,0,0,1-15.17-1.23,115.79,115.79,0,0,1-18.35-4.73C83,40.68,75.59,37.29,69.87,31.25A8.71,8.71,0,0,0,68.4,30.24Z" transform="translate(-52.11 -2.06)" fill="#fff"/>
    </g>
  </g>
</symbol>

<symbol id="supplements" viewBox="0 0 283.94 287.6">
  <title>supplements</title>
  <g id="ff4Y2v.tif">
    <g>
      <path d="M-15,266.8V-20.8H269V266.8H-15ZM88.62,238.28l0.1,0.56a29.2,29.2,0,0,0,3.54-.69c1.8-.57,3.55-1.31,5.31-2,4.6-1.8,9.55-3,13.7-5.56a126.56,126.56,0,0,0,16.61-12.35c6.16-5.32,11.9-11.14,17.7-16.88,5-4.93,10.54-9.32,14.33-15.41a43.7,43.7,0,0,1,5.19-6.35c3.6-3.89,7.36-7.63,11-11.53,2.49-2.69,4.88-5.48,7.2-8.32,1.94-2.37,3.57-5,5.59-7.29,3.08-3.48,6.49-6.67,9.54-10.16,3.61-4.13,7-8.5,10.5-12.69,2.81-3.32,6-6.38,8.59-9.84,3.27-4.3,6-9,9.24-13.35a67.78,67.78,0,0,0,11.86-25.11c1.43-6.37,2.08-13,.77-19.67a56.79,56.79,0,0,0-14.47-28c-1.93-2.1-4.78-3.43-6.48-5.66-4-5.24-9.73-8-15.34-10.34-7.69-3.15-15.93-5-24-7a35.88,35.88,0,0,0-10.25-1,76.67,76.67,0,0,0-20.16,4c-7.75,2.49-15,5.85-21.11,11-4.87,4.09-9,9.1-13.41,13.71-1.37,1.43-2.74,2.87-4,4.39-3,3.65-5.88,7.46-9,11C95.48,60.18,89.63,66.4,84,72.83,78.1,79.6,72.38,86.55,66.5,93.37c-2.3,2.67-4.9,5.08-7.15,7.78-2.7,3.25-5.09,6.75-7.76,10s-5.59,6.43-8.36,9.67c-1.93,2.25-3.73,4.6-5.71,6.8s-4.39,4.18-6.22,6.55c-2.6,3.36-4.84,7-7.25,10.51-1.81,2.63-4,5.06-5.38,7.9A83.65,83.65,0,0,0,13,167c-1.52,5.74-1.64,11.62,1.57,17.16,1.4,2.42,2.05,5.25,3.28,7.79,2.48,5.15,4.75,10.45,7.81,15.25,2.76,4.32,6.35,8.13,9.77,12A33.58,33.58,0,0,0,40.26,223c3.08,2.39,6.23,4.7,9.23,7.19,3.65,3,6.81,6.83,12.08,7.07a2.31,2.31,0,0,1,.83.29c6.81,3.25,13.87,3.32,21.07,1.67C85.17,238.83,86.9,238.59,88.62,238.28Z" transform="translate(14.97 20.8)" fill="#fff"/>
      <path d="M88.62,238.28c-1.72.31-3.45,0.55-5.15,0.94-7.2,1.64-14.26,1.58-21.07-1.67a2.31,2.31,0,0,0-.83-0.29c-5.27-.24-8.43-4-12.08-7.07-3-2.49-6.15-4.8-9.23-7.19a33.58,33.58,0,0,1-4.83-3.82c-3.42-3.87-7-7.68-9.77-12-3.06-4.79-5.33-10.1-7.81-15.25-1.22-2.53-1.88-5.37-3.28-7.79-3.2-5.54-3.09-11.42-1.57-17.16a83.65,83.65,0,0,1,5.67-14.42c1.36-2.84,3.57-5.27,5.38-7.9,2.41-3.51,4.65-7.15,7.25-10.51,1.83-2.37,4.2-4.31,6.22-6.55s3.78-4.55,5.71-6.8c2.77-3.24,5.67-6.37,8.36-9.67s5.06-6.77,7.76-10C61.6,98.44,64.2,96,66.5,93.37,72.38,86.55,78.1,79.6,84,72.83c5.61-6.43,11.46-12.65,17.09-19.07,3.12-3.57,6-7.37,9-11,1.26-1.52,2.63-3,4-4.39,4.43-4.62,8.54-9.62,13.41-13.71,6.14-5.16,13.36-8.52,21.11-11a76.67,76.67,0,0,1,20.16-4,35.88,35.88,0,0,1,10.25,1c8.1,2,16.34,3.89,24,7,5.61,2.3,11.35,5.1,15.34,10.34,1.7,2.23,4.55,3.56,6.48,5.66a56.79,56.79,0,0,1,14.47,28c1.31,6.72.66,13.3-.77,19.67a67.78,67.78,0,0,1-11.86,25.11c-3.19,4.37-6,9-9.24,13.35-2.63,3.46-5.78,6.51-8.59,9.84-3.55,4.19-6.89,8.56-10.5,12.69-3.06,3.5-6.47,6.68-9.54,10.16-2,2.29-3.65,4.92-5.59,7.29-2.32,2.84-4.71,5.62-7.2,8.32-3.6,3.89-7.36,7.63-11,11.53a43.7,43.7,0,0,0-5.19,6.35c-3.79,6.09-9.34,10.48-14.33,15.41-5.8,5.73-11.54,11.55-17.7,16.88a126.56,126.56,0,0,1-16.61,12.35c-4.15,2.53-9.1,3.76-13.7,5.56-1.76.69-3.51,1.42-5.31,2a29.2,29.2,0,0,1-3.54.69Zm90-87.41c0.9-.84,1.75-1.54,2.49-2.34,3.39-3.68,6.68-7.45,10.13-11.07s7.36-7.22,10.87-11c3.89-4.18,7.63-8.51,11.3-12.89a66.74,66.74,0,0,0,7-9.27,172.2,172.2,0,0,0,8.53-16.88A39.17,39.17,0,0,0,232.2,67.3a42.48,42.48,0,0,0-7.43-20c-7-9.67-15.24-17.71-26.17-23.23-8-4-16.36-5-24.75-6.58-5.4-1-10.65-.1-16,0.92a61.27,61.27,0,0,0-25.46,11.29c-4.29,3.18-7.74,7.52-11.5,11.4Q111,51.25,101.25,61.51c-2.72,2.88-5.3,5.91-7.83,9a2.18,2.18,0,0,0-.1,2.09c1.58,1.45,3.37,2.67,5.05,4a102.36,102.36,0,0,1,8.24,6.77c6,5.95,11.68,12.23,17.72,18.15q16.13,15.82,32.55,31.34c4.32,4.09,8.92,7.9,13.48,11.72C173,146.76,175.82,148.73,178.65,150.87Z" transform="translate(14.97 20.8)"/>
      <path d="M178.65,150.87c-2.82-2.14-5.65-4.1-8.27-6.3-4.57-3.82-9.16-7.63-13.48-11.72q-16.4-15.53-32.55-31.34c-6-5.92-11.71-12.21-17.72-18.15a102.36,102.36,0,0,0-8.24-6.77c-1.68-1.35-3.47-2.56-5.05-4a2.18,2.18,0,0,1,.1-2.09c2.53-3.06,5.1-6.08,7.83-9Q111,51.22,120.85,41.07c3.76-3.88,7.21-8.22,11.5-11.4a61.27,61.27,0,0,1,25.46-11.29c5.4-1,10.65-2,16-.92,8.38,1.62,16.79,2.57,24.75,6.58,10.93,5.52,19.18,13.56,26.17,23.23a42.48,42.48,0,0,1,7.43,20,39.17,39.17,0,0,1-3.25,20.14,172.2,172.2,0,0,1-8.53,16.88,66.74,66.74,0,0,1-7,9.27c-3.66,4.38-7.41,8.7-11.3,12.89-3.5,3.77-7.31,7.26-10.87,11s-6.74,7.39-10.13,11.07C180.4,149.32,179.55,150,178.65,150.87Z" transform="translate(14.97 20.8)" fill="#fff"/>
    </g>
  </g>
</symbol>

<symbol id="vegetables" viewBox="0 0 281.03 305.94">
  <title>vegetables</title>
  <g id="_1plcJK.tif" data-name="1plcJK.tif">
    <g>
      <path d="M-27.86,267.79V-38.15h281V267.79h-281ZM160,161c5.91,2.14,10.91,4.39,16.39,1,1.57-1,3.76-.9,5.55-1.6,2-.79,3.87-2.42,6-2.78,6.88-1.21,11.28-6,15.36-10.79,3.35-3.92,5.6-8.79,8.17-13.33,1.22-2.16,2.67-4.47,2.91-6.83a56.41,56.41,0,0,0-.34-11.44c-0.16-1.61,0-2.5,1.42-3.4a22.33,22.33,0,0,0,4.73-3.86c1.63-1.78,2.92-3.87,4.37-5.82a3.76,3.76,0,0,0,1-1.2c0.39-4.24,3.06-7.89,2.32-12.57-0.65-4.13.07-8.54,0.6-12.77,0.64-5.18-1.79-9.59-4.5-13.11-5.45-7.09-11.24-14.42-21.7-14.3-2.3,0-2.48-1.38-1.91-3.35,0.81-2.77,2-5.67,1.83-8.43a26.75,26.75,0,0,0-8.26-18.17A40,40,0,0,0,174.51,7.84a60.59,60.59,0,0,0-24.2-.69,17,17,0,0,0-3,.8c-3.21,1.26-6.47,2.43-9.53,4a20,20,0,0,0-5.83,4.2c-1.95,2.17-3.24,2.08-5.32.23a37.22,37.22,0,0,0-7.06-4.85c-8-4.33-16.77-3.28-25.14-2.11a45.63,45.63,0,0,0-21.79,9,116.23,116.23,0,0,0-13.89,13C54.19,36.31,52.55,42.79,50.57,49a5.23,5.23,0,0,1-2.69,2.54c-4.12,1.94-8.55,3.3-12.44,5.6a17.53,17.53,0,0,0-7.67,9.43c-1.88,5.2-6.11,9.1-7.63,14.88-1.72,6.49-.13,12.31,1,18.26,0.53,2.82,3.33,5.15,4.66,7.92,1.62,3.37,3.76,5.91,7.41,7,2.87,0.89,4.41,3.39,3.23,5.83-3.11,6.4-1.63,13.32-2.53,20a2.2,2.2,0,0,0,.29.92c0.87,2.29,1.45,4.76,2.7,6.82,1.93,3.19,3.85,6.67,6.63,9,4.54,3.82,9.77,6.83,14.71,10.18,8.29,5.62,17,8.2,26.75,3.87a14.74,14.74,0,0,1,3.19-.52,53.41,53.41,0,0,0-.53,6.75c0.4,7.78,1.23,15.54,1.41,23.32,0.25,10.57,2.2,21.11.11,31.75-1,4.91,1.32,7.39,6.34,8.78a17.59,17.59,0,0,1,3.25,1.36c9.17,4.69,19.24,5.35,29.18,5.93,8.61,0.5,16.86-2.06,24.88-5.13a13,13,0,0,1,4-1.09c5.14-.18,7.45-3.22,6.06-8a20.39,20.39,0,0,1-.83-5c-0.18-6.42-.12-12.85-0.35-19.27-0.29-7.83-.85-15.66-1.16-23.49-0.27-6.72-.36-13.44-0.52-20.16C160,164.72,160,163,160,161Z" transform="translate(27.86 38.15)" fill="#fff"/>
      <path d="M160,161c0,2,0,3.69,0,5.41,0.15,6.72.25,13.45,0.52,20.16,0.31,7.83.87,15.66,1.16,23.49,0.23,6.42.17,12.85,0.35,19.27a20.39,20.39,0,0,0,.83,5c1.4,4.82-.91,7.85-6.06,8a13,13,0,0,0-4,1.09c-8,3.06-16.27,5.63-24.88,5.13-9.94-.58-20-1.24-29.18-5.93a17.59,17.59,0,0,0-3.25-1.36c-5-1.39-7.31-3.87-6.34-8.78,2.1-10.64.14-21.18-.11-31.75-0.18-7.78-1-15.54-1.41-23.32a53.41,53.41,0,0,1,.53-6.75,14.74,14.74,0,0,0-3.19.52c-9.74,4.32-18.46,1.75-26.75-3.87-4.94-3.35-10.17-6.36-14.71-10.18-2.78-2.34-4.7-5.82-6.63-9-1.25-2.06-1.82-4.53-2.7-6.82a2.2,2.2,0,0,1-.29-0.92c0.9-6.64-.58-13.55,2.53-20,1.19-2.44-.36-4.94-3.23-5.83-3.65-1.13-5.79-3.68-7.41-7-1.33-2.77-4.13-5.09-4.66-7.92-1.11-5.95-2.7-11.77-1-18.26,1.53-5.78,5.75-9.68,7.63-14.88a17.53,17.53,0,0,1,7.67-9.43c3.89-2.3,8.33-3.66,12.44-5.6A5.23,5.23,0,0,0,50.57,49c2-6.24,3.61-12.72,8.14-17.63a116.23,116.23,0,0,1,13.89-13,45.63,45.63,0,0,1,21.79-9c8.37-1.17,17.11-2.22,25.14,2.11a37.22,37.22,0,0,1,7.06,4.85c2.08,1.85,3.37,1.94,5.32-.23a20,20,0,0,1,5.83-4.2c3.06-1.55,6.33-2.72,9.53-4a17,17,0,0,1,3-.8,60.59,60.59,0,0,1,24.2.69,40,40,0,0,1,19.37,10.42,26.75,26.75,0,0,1,8.26,18.17c0.19,2.76-1,5.66-1.83,8.43-0.57,2-.39,3.37,1.91,3.35,10.46-.12,16.26,7.22,21.7,14.3,2.71,3.52,5.14,7.93,4.5,13.11-0.52,4.23-1.25,8.64-.6,12.77,0.74,4.68-1.93,8.33-2.32,12.57a3.76,3.76,0,0,1-1,1.2c-1.45,1.95-2.74,4-4.37,5.82a22.33,22.33,0,0,1-4.73,3.86c-1.45.9-1.58,1.78-1.42,3.4a56.41,56.41,0,0,1,.34,11.44c-0.25,2.36-1.69,4.67-2.91,6.83-2.57,4.54-4.82,9.42-8.17,13.33-4.08,4.78-8.49,9.58-15.36,10.79-2.08.37-3.91,2-6,2.78-1.79.7-4,.62-5.55,1.6C170.9,165.43,165.91,163.18,160,161Z" transform="translate(27.86 38.15)"/>
    </g>
  </g>
</symbol>


</svg>