<svg id="Layer_1" data-name="Layer 1" xmlns="http://www.w3.org/2000/svg" viewBox="0 0 206.18 250">
  <title>fruit</title>
  <g id="oSymwm.tif">
    <g>
      <path d="M88.25,250.72H78.91A5.75,5.75,0,0,0,77.37,249c-2.21-.94-4.75-1.3-6.71-2.58a163.15,163.15,0,0,1-15.56-11.09c-6.34-5.29-12-11.36-15.8-18.81a104.16,104.16,0,0,1-5-10.39c-2.71-7.07-5.27-14.22-7.55-21.44-0.65-2,0-4.47-.16-6.71-0.68-12.15-4.08-24-2.21-36.48,1.79-11.92,3-23.85,9.22-34.53,3.86-6.68,7.56-13.48,11.95-19.8,2.22-3.2,6.39-5,8.64-8.21,3.27-4.63,8.29-6.45,12.74-8.9,3.61-2,8.2-2.57,12.43-3,7.5-.79,15-3.29,22.64-0.88a15.16,15.16,0,0,0,4.22.63,21.12,21.12,0,0,1,14.28,6c0.88,0.81,1.77,1.6,3.3,3V57.1c-7.19-1.11-14.2-1.57-20.83-3.4C96.76,52,90.12,49.37,87.31,43.05,85.21,38.35,81.5,34,83,27.74c0.85-3.56-.69-7.66-0.91-11.53A7.65,7.65,0,0,1,87.85,9c3-.57,5.08,1.15,7.14,3.34,1.61,1.7,4,3.37,6.25,3.57,3.35,0.3,6.86-.47,10.23-1.15a32.2,32.2,0,0,1,21.47,2.67c4.77,2.4,6.07,2,9.18-2.27,4.33-5.92,9.41-10.78,17.13-11.94,2.32-.35,4.6-1.75,6.84-1.63a113.35,113.35,0,0,1,14.22,1.92,14.34,14.34,0,0,1,11.36,17c-0.69,3.07-3.42,4.94-5.74,3.56a44.41,44.41,0,0,1-5.64-4.62c-2.14-1.82-4-4.77-6.45-5.27-8.86-1.83-17,.66-22.84,7.59-5.2,6.11-9.9,12.77-11.84,20.82-0.43,1.77.14,3.76-.21,5.56-1.15,5.78-2.68,11.48-3.74,17.28-0.57,3.12-.46,6.37-0.68,10a7.87,7.87,0,0,0,1.65-.9c7.6-9.25,18-12.28,29.3-12.38A77.6,77.6,0,0,1,180.75,64a28.47,28.47,0,0,1,9.61,3.36,110.61,110.61,0,0,1,13.82,10.38c6.08,5.3,10.53,12,14.35,19,1.28,2.36,3,4.55,3.9,7,1.79,4.86,3.76,9.79,4.53,14.85a139,139,0,0,1,1.18,19.89c0,6.94-.26,13.9-0.78,20.83-0.38,5-1.36,10-2,15-0.53,3.86-.82,7.77-1.55,11.6-1,5-2.24,9.91-3.36,14.87-0.88,3.89-1.32,7.93-2.69,11.63s-3.63,7.24-5.58,10.79c-1.46,2.67-3.28,5.16-4.55,7.91-2.92,6.33-8.22,10.25-13.89,13.59a27.73,27.73,0,0,1-13.39,4.05c-2.21.06-4.38,1.21-6.57,1.87h-2.87c-1.39-.29-2.78-0.61-4.17-0.86-2.54-.45-5.25-0.44-7.61-1.34-5.48-2.1-10.79-4.62-14.75-9.22-3.21-3.73-6.43-7.45-9.62-11.2-1.07-1.26-2-2.59-3.07-3.91a43.62,43.62,0,0,1-3.61,5.09c-3.67,3.81-7.85,7.18-11.18,11.25-3.88,4.75-8.81,6.63-14.55,7.1-1.88.15-3.94-.7-5.69-0.24A66.07,66.07,0,0,0,88.25,250.72Z" transform="translate(-22.87 -0.72)"/>
      <path d="M173.73,250.72c2.19-.66,4.36-1.81,6.57-1.87a27.73,27.73,0,0,0,13.39-4.05c5.67-3.34,11-7.26,13.89-13.59,1.27-2.75,3.08-5.24,4.55-7.91,2-3.55,4.19-7,5.58-10.79s1.81-7.74,2.69-11.63c1.12-5,2.41-9.88,3.36-14.87,0.73-3.82,1-7.73,1.55-11.6,0.68-5,1.67-10,2-15,0.52-6.92.82-13.88,0.78-20.83A139,139,0,0,0,227,118.66c-0.77-5.07-2.75-10-4.53-14.85-0.91-2.49-2.62-4.68-3.9-7-3.83-7.08-8.27-13.74-14.35-19a110.61,110.61,0,0,0-13.82-10.38A28.47,28.47,0,0,0,180.75,64a77.6,77.6,0,0,0-15.29-1.89c-11.34.1-21.7,3.13-29.3,12.38a7.87,7.87,0,0,1-1.65.9c0.22-3.63.12-6.87,0.68-10,1.05-5.79,2.59-11.5,3.74-17.28,0.36-1.8-.21-3.79.21-5.56,1.95-8,6.65-14.7,11.84-20.82,5.89-6.93,14-9.42,22.84-7.59,2.41,0.5,4.3,3.46,6.45,5.27A44.41,44.41,0,0,0,185.92,24c2.31,1.38,5-.49,5.74-3.56a14.34,14.34,0,0,0-11.36-17,113.35,113.35,0,0,0-14.22-1.92c-2.24-.12-4.52,1.28-6.84,1.63-7.72,1.15-12.8,6-17.13,11.94-3.1,4.24-4.41,4.67-9.18,2.27a32.2,32.2,0,0,0-21.47-2.67c-3.37.68-6.88,1.45-10.23,1.15C99,15.68,96.59,14,95,12.31,92.92,10.12,90.82,8.4,87.85,9a7.65,7.65,0,0,0-5.77,7.24c0.22,3.87,1.77,8,.91,11.53C81.5,34,85.21,38.35,87.31,43.05,90.12,49.37,96.76,52,103,53.69c6.63,1.84,13.64,2.29,20.83,3.4v18.7c-1.53-1.38-2.43-2.17-3.3-3a21.12,21.12,0,0,0-14.28-6,15.16,15.16,0,0,1-4.22-.63c-7.66-2.41-15.13.09-22.64,0.88-4.23.44-8.82,1-12.43,3-4.45,2.46-9.47,4.28-12.74,8.9-2.25,3.18-6.42,5-8.64,8.21-4.39,6.32-8.09,13.12-11.95,19.8-6.17,10.68-7.42,22.61-9.22,34.53C22.51,154,25.91,165.85,26.59,178c0.13,2.24-.48,4.66.16,6.71,2.28,7.22,4.84,14.36,7.55,21.44a104.16,104.16,0,0,0,5,10.39c3.85,7.45,9.46,13.52,15.8,18.81a163.15,163.15,0,0,0,15.56,11.09c2,1.28,4.51,1.63,6.71,2.58a5.75,5.75,0,0,1,1.54,1.71h-56V0.72H229.05v250H173.73Z" transform="translate(-22.87 -0.72)" fill="#fff"/>
      <path d="M88.25,250.72a66.07,66.07,0,0,1,8.36-3.33c1.76-.46,3.81.39,5.69,0.24,5.73-.47,10.67-2.34,14.55-7.1,3.33-4.08,7.51-7.44,11.18-11.25a43.62,43.62,0,0,0,3.61-5.09c1,1.32,2,2.66,3.07,3.91,3.19,3.75,6.41,7.47,9.62,11.2,4,4.6,9.27,7.13,14.75,9.22,2.36,0.91,5.07.9,7.61,1.34,1.4,0.24,2.78.57,4.17,0.86H88.25Z" transform="translate(-22.87 -0.72)" fill="#fff"/>
    </g>
  </g>
</svg>
