<svg id="Layer_1" data-name="Layer 1" xmlns="http://www.w3.org/2000/svg" viewBox="0 0 283.94 287.6">
  <title>supplements</title>
  <g id="ff4Y2v.tif">
    <g>
      <path d="M-15,266.8V-20.8H269V266.8H-15ZM88.62,238.28l0.1,0.56a29.2,29.2,0,0,0,3.54-.69c1.8-.57,3.55-1.31,5.31-2,4.6-1.8,9.55-3,13.7-5.56a126.56,126.56,0,0,0,16.61-12.35c6.16-5.32,11.9-11.14,17.7-16.88,5-4.93,10.54-9.32,14.33-15.41a43.7,43.7,0,0,1,5.19-6.35c3.6-3.89,7.36-7.63,11-11.53,2.49-2.69,4.88-5.48,7.2-8.32,1.94-2.37,3.57-5,5.59-7.29,3.08-3.48,6.49-6.67,9.54-10.16,3.61-4.13,7-8.5,10.5-12.69,2.81-3.32,6-6.38,8.59-9.84,3.27-4.3,6-9,9.24-13.35a67.78,67.78,0,0,0,11.86-25.11c1.43-6.37,2.08-13,.77-19.67a56.79,56.79,0,0,0-14.47-28c-1.93-2.1-4.78-3.43-6.48-5.66-4-5.24-9.73-8-15.34-10.34-7.69-3.15-15.93-5-24-7a35.88,35.88,0,0,0-10.25-1,76.67,76.67,0,0,0-20.16,4c-7.75,2.49-15,5.85-21.11,11-4.87,4.09-9,9.1-13.41,13.71-1.37,1.43-2.74,2.87-4,4.39-3,3.65-5.88,7.46-9,11C95.48,60.18,89.63,66.4,84,72.83,78.1,79.6,72.38,86.55,66.5,93.37c-2.3,2.67-4.9,5.08-7.15,7.78-2.7,3.25-5.09,6.75-7.76,10s-5.59,6.43-8.36,9.67c-1.93,2.25-3.73,4.6-5.71,6.8s-4.39,4.18-6.22,6.55c-2.6,3.36-4.84,7-7.25,10.51-1.81,2.63-4,5.06-5.38,7.9A83.65,83.65,0,0,0,13,167c-1.52,5.74-1.64,11.62,1.57,17.16,1.4,2.42,2.05,5.25,3.28,7.79,2.48,5.15,4.75,10.45,7.81,15.25,2.76,4.32,6.35,8.13,9.77,12A33.58,33.58,0,0,0,40.26,223c3.08,2.39,6.23,4.7,9.23,7.19,3.65,3,6.81,6.83,12.08,7.07a2.31,2.31,0,0,1,.83.29c6.81,3.25,13.87,3.32,21.07,1.67C85.17,238.83,86.9,238.59,88.62,238.28Z" transform="translate(14.97 20.8)" fill="#fff"/>
      <path d="M88.62,238.28c-1.72.31-3.45,0.55-5.15,0.94-7.2,1.64-14.26,1.58-21.07-1.67a2.31,2.31,0,0,0-.83-0.29c-5.27-.24-8.43-4-12.08-7.07-3-2.49-6.15-4.8-9.23-7.19a33.58,33.58,0,0,1-4.83-3.82c-3.42-3.87-7-7.68-9.77-12-3.06-4.79-5.33-10.1-7.81-15.25-1.22-2.53-1.88-5.37-3.28-7.79-3.2-5.54-3.09-11.42-1.57-17.16a83.65,83.65,0,0,1,5.67-14.42c1.36-2.84,3.57-5.27,5.38-7.9,2.41-3.51,4.65-7.15,7.25-10.51,1.83-2.37,4.2-4.31,6.22-6.55s3.78-4.55,5.71-6.8c2.77-3.24,5.67-6.37,8.36-9.67s5.06-6.77,7.76-10C61.6,98.44,64.2,96,66.5,93.37,72.38,86.55,78.1,79.6,84,72.83c5.61-6.43,11.46-12.65,17.09-19.07,3.12-3.57,6-7.37,9-11,1.26-1.52,2.63-3,4-4.39,4.43-4.62,8.54-9.62,13.41-13.71,6.14-5.16,13.36-8.52,21.11-11a76.67,76.67,0,0,1,20.16-4,35.88,35.88,0,0,1,10.25,1c8.1,2,16.34,3.89,24,7,5.61,2.3,11.35,5.1,15.34,10.34,1.7,2.23,4.55,3.56,6.48,5.66a56.79,56.79,0,0,1,14.47,28c1.31,6.72.66,13.3-.77,19.67a67.78,67.78,0,0,1-11.86,25.11c-3.19,4.37-6,9-9.24,13.35-2.63,3.46-5.78,6.51-8.59,9.84-3.55,4.19-6.89,8.56-10.5,12.69-3.06,3.5-6.47,6.68-9.54,10.16-2,2.29-3.65,4.92-5.59,7.29-2.32,2.84-4.71,5.62-7.2,8.32-3.6,3.89-7.36,7.63-11,11.53a43.7,43.7,0,0,0-5.19,6.35c-3.79,6.09-9.34,10.48-14.33,15.41-5.8,5.73-11.54,11.55-17.7,16.88a126.56,126.56,0,0,1-16.61,12.35c-4.15,2.53-9.1,3.76-13.7,5.56-1.76.69-3.51,1.42-5.31,2a29.2,29.2,0,0,1-3.54.69Zm90-87.41c0.9-.84,1.75-1.54,2.49-2.34,3.39-3.68,6.68-7.45,10.13-11.07s7.36-7.22,10.87-11c3.89-4.18,7.63-8.51,11.3-12.89a66.74,66.74,0,0,0,7-9.27,172.2,172.2,0,0,0,8.53-16.88A39.17,39.17,0,0,0,232.2,67.3a42.48,42.48,0,0,0-7.43-20c-7-9.67-15.24-17.71-26.17-23.23-8-4-16.36-5-24.75-6.58-5.4-1-10.65-.1-16,0.92a61.27,61.27,0,0,0-25.46,11.29c-4.29,3.18-7.74,7.52-11.5,11.4Q111,51.25,101.25,61.51c-2.72,2.88-5.3,5.91-7.83,9a2.18,2.18,0,0,0-.1,2.09c1.58,1.45,3.37,2.67,5.05,4a102.36,102.36,0,0,1,8.24,6.77c6,5.95,11.68,12.23,17.72,18.15q16.13,15.82,32.55,31.34c4.32,4.09,8.92,7.9,13.48,11.72C173,146.76,175.82,148.73,178.65,150.87Z" transform="translate(14.97 20.8)"/>
      <path d="M178.65,150.87c-2.82-2.14-5.65-4.1-8.27-6.3-4.57-3.82-9.16-7.63-13.48-11.72q-16.4-15.53-32.55-31.34c-6-5.92-11.71-12.21-17.72-18.15a102.36,102.36,0,0,0-8.24-6.77c-1.68-1.35-3.47-2.56-5.05-4a2.18,2.18,0,0,1,.1-2.09c2.53-3.06,5.1-6.08,7.83-9Q111,51.22,120.85,41.07c3.76-3.88,7.21-8.22,11.5-11.4a61.27,61.27,0,0,1,25.46-11.29c5.4-1,10.65-2,16-.92,8.38,1.62,16.79,2.57,24.75,6.58,10.93,5.52,19.18,13.56,26.17,23.23a42.48,42.48,0,0,1,7.43,20,39.17,39.17,0,0,1-3.25,20.14,172.2,172.2,0,0,1-8.53,16.88,66.74,66.74,0,0,1-7,9.27c-3.66,4.38-7.41,8.7-11.3,12.89-3.5,3.77-7.31,7.26-10.87,11s-6.74,7.39-10.13,11.07C180.4,149.32,179.55,150,178.65,150.87Z" transform="translate(14.97 20.8)" fill="#fff"/>
    </g>
  </g>
</svg>
