<svg id="Layer_1" data-name="Layer 1" xmlns="http://www.w3.org/2000/svg" viewBox="0 0 281.03 305.94">
  <title>vegetables</title>
  <g id="_1plcJK.tif" data-name="1plcJK.tif">
    <g>
      <path d="M-27.86,267.79V-38.15h281V267.79h-281ZM160,161c5.91,2.14,10.91,4.39,16.39,1,1.57-1,3.76-.9,5.55-1.6,2-.79,3.87-2.42,6-2.78,6.88-1.21,11.28-6,15.36-10.79,3.35-3.92,5.6-8.79,8.17-13.33,1.22-2.16,2.67-4.47,2.91-6.83a56.41,56.41,0,0,0-.34-11.44c-0.16-1.61,0-2.5,1.42-3.4a22.33,22.33,0,0,0,4.73-3.86c1.63-1.78,2.92-3.87,4.37-5.82a3.76,3.76,0,0,0,1-1.2c0.39-4.24,3.06-7.89,2.32-12.57-0.65-4.13.07-8.54,0.6-12.77,0.64-5.18-1.79-9.59-4.5-13.11-5.45-7.09-11.24-14.42-21.7-14.3-2.3,0-2.48-1.38-1.91-3.35,0.81-2.77,2-5.67,1.83-8.43a26.75,26.75,0,0,0-8.26-18.17A40,40,0,0,0,174.51,7.84a60.59,60.59,0,0,0-24.2-.69,17,17,0,0,0-3,.8c-3.21,1.26-6.47,2.43-9.53,4a20,20,0,0,0-5.83,4.2c-1.95,2.17-3.24,2.08-5.32.23a37.22,37.22,0,0,0-7.06-4.85c-8-4.33-16.77-3.28-25.14-2.11a45.63,45.63,0,0,0-21.79,9,116.23,116.23,0,0,0-13.89,13C54.19,36.31,52.55,42.79,50.57,49a5.23,5.23,0,0,1-2.69,2.54c-4.12,1.94-8.55,3.3-12.44,5.6a17.53,17.53,0,0,0-7.67,9.43c-1.88,5.2-6.11,9.1-7.63,14.88-1.72,6.49-.13,12.31,1,18.26,0.53,2.82,3.33,5.15,4.66,7.92,1.62,3.37,3.76,5.91,7.41,7,2.87,0.89,4.41,3.39,3.23,5.83-3.11,6.4-1.63,13.32-2.53,20a2.2,2.2,0,0,0,.29.92c0.87,2.29,1.45,4.76,2.7,6.82,1.93,3.19,3.85,6.67,6.63,9,4.54,3.82,9.77,6.83,14.71,10.18,8.29,5.62,17,8.2,26.75,3.87a14.74,14.74,0,0,1,3.19-.52,53.41,53.41,0,0,0-.53,6.75c0.4,7.78,1.23,15.54,1.41,23.32,0.25,10.57,2.2,21.11.11,31.75-1,4.91,1.32,7.39,6.34,8.78a17.59,17.59,0,0,1,3.25,1.36c9.17,4.69,19.24,5.35,29.18,5.93,8.61,0.5,16.86-2.06,24.88-5.13a13,13,0,0,1,4-1.09c5.14-.18,7.45-3.22,6.06-8a20.39,20.39,0,0,1-.83-5c-0.18-6.42-.12-12.85-0.35-19.27-0.29-7.83-.85-15.66-1.16-23.49-0.27-6.72-.36-13.44-0.52-20.16C160,164.72,160,163,160,161Z" transform="translate(27.86 38.15)" fill="#fff"/>
      <path d="M160,161c0,2,0,3.69,0,5.41,0.15,6.72.25,13.45,0.52,20.16,0.31,7.83.87,15.66,1.16,23.49,0.23,6.42.17,12.85,0.35,19.27a20.39,20.39,0,0,0,.83,5c1.4,4.82-.91,7.85-6.06,8a13,13,0,0,0-4,1.09c-8,3.06-16.27,5.63-24.88,5.13-9.94-.58-20-1.24-29.18-5.93a17.59,17.59,0,0,0-3.25-1.36c-5-1.39-7.31-3.87-6.34-8.78,2.1-10.64.14-21.18-.11-31.75-0.18-7.78-1-15.54-1.41-23.32a53.41,53.41,0,0,1,.53-6.75,14.74,14.74,0,0,0-3.19.52c-9.74,4.32-18.46,1.75-26.75-3.87-4.94-3.35-10.17-6.36-14.71-10.18-2.78-2.34-4.7-5.82-6.63-9-1.25-2.06-1.82-4.53-2.7-6.82a2.2,2.2,0,0,1-.29-0.92c0.9-6.64-.58-13.55,2.53-20,1.19-2.44-.36-4.94-3.23-5.83-3.65-1.13-5.79-3.68-7.41-7-1.33-2.77-4.13-5.09-4.66-7.92-1.11-5.95-2.7-11.77-1-18.26,1.53-5.78,5.75-9.68,7.63-14.88a17.53,17.53,0,0,1,7.67-9.43c3.89-2.3,8.33-3.66,12.44-5.6A5.23,5.23,0,0,0,50.57,49c2-6.24,3.61-12.72,8.14-17.63a116.23,116.23,0,0,1,13.89-13,45.63,45.63,0,0,1,21.79-9c8.37-1.17,17.11-2.22,25.14,2.11a37.22,37.22,0,0,1,7.06,4.85c2.08,1.85,3.37,1.94,5.32-.23a20,20,0,0,1,5.83-4.2c3.06-1.55,6.33-2.72,9.53-4a17,17,0,0,1,3-.8,60.59,60.59,0,0,1,24.2.69,40,40,0,0,1,19.37,10.42,26.75,26.75,0,0,1,8.26,18.17c0.19,2.76-1,5.66-1.83,8.43-0.57,2-.39,3.37,1.91,3.35,10.46-.12,16.26,7.22,21.7,14.3,2.71,3.52,5.14,7.93,4.5,13.11-0.52,4.23-1.25,8.64-.6,12.77,0.74,4.68-1.93,8.33-2.32,12.57a3.76,3.76,0,0,1-1,1.2c-1.45,1.95-2.74,4-4.37,5.82a22.33,22.33,0,0,1-4.73,3.86c-1.45.9-1.58,1.78-1.42,3.4a56.41,56.41,0,0,1,.34,11.44c-0.25,2.36-1.69,4.67-2.91,6.83-2.57,4.54-4.82,9.42-8.17,13.33-4.08,4.78-8.49,9.58-15.36,10.79-2.08.37-3.91,2-6,2.78-1.79.7-4,.62-5.55,1.6C170.9,165.43,165.91,163.18,160,161Z" transform="translate(27.86 38.15)"/>
    </g>
  </g>
</svg>
